<svg width="48" height="25" viewBox="0 0 48 25" fill="none" xmlns="http://www.w3.org/2000/svg">
<path d="M46.6038 0H41.0897C40.8439 5.72205e-06 40.6024 0.0559483 40.3895 0.162207C40.1766 0.268463 39.9998 0.421289 39.8769 0.60533L32.734 11.2894C32.6111 11.4734 32.4343 11.6262 32.2213 11.7325C32.0084 11.8387 31.7669 11.8946 31.5211 11.8946C31.2753 11.8946 31.0338 11.8387 30.8208 11.7325C30.6079 11.6262 30.4311 11.4734 30.3082 11.2894L23.1737 0.60533C23.0508 0.421289 22.874 0.268463 22.6611 0.162207C22.4482 0.0559483 22.2067 5.72205e-06 21.9609 0H16.4398C16.194 5.72205e-06 15.9525 0.0559502 15.7396 0.16221C15.5267 0.268469 15.3499 0.421299 15.2269 0.605341C15.104 0.789383 15.0393 0.998152 15.0393 1.21066C15.0393 1.42318 15.104 1.63194 15.2269 1.81598L30.3054 24.3947C30.4283 24.5788 30.6051 24.7316 30.818 24.8378C31.0309 24.9441 31.2725 25 31.5183 25C31.7641 25 32.0056 24.9441 32.2185 24.8378C32.4314 24.7316 32.6083 24.5788 32.7312 24.3947L47.8124 1.81598C47.9352 1.63221 47.9999 1.42378 48.0001 1.21157C48.0003 0.999367 47.9359 0.790848 47.8135 0.606913C47.6911 0.422977 47.5149 0.270086 47.3026 0.163567C47.0902 0.0570488 46.8493 0.000642776 46.6038 0Z" fill="#EEEEEE"/>
<path d="M31.4709 3.05176e-05L25.8616 3.05176e-05C25.6225 -0.000262737 25.3876 0.0539837 25.1805 0.157292C24.9735 0.260602 24.8016 0.409315 24.6823 0.58841C24.5626 0.76722 24.4995 0.970176 24.4995 1.17679C24.4995 1.3834 24.5626 1.58636 24.6823 1.76517L27.4835 5.96494C27.603 6.14367 27.7748 6.29207 27.9817 6.39525C28.1886 6.49842 28.4232 6.55273 28.662 6.55273C28.9009 6.55273 29.1355 6.49842 29.3424 6.39525C29.5492 6.29207 29.7211 6.14367 29.8406 5.96494L32.6417 1.76517C32.7609 1.58679 32.8238 1.38451 32.8241 1.17853C32.8245 0.972557 32.7623 0.77011 32.6438 0.591425C32.5252 0.41274 32.3545 0.264077 32.1487 0.160296C31.9429 0.0565157 31.7091 0.00125265 31.4709 3.05176e-05Z" fill="#4FB3FF"/>
<path d="M23.2381 14.8874L20.4776 10.7567C20.3547 10.5727 20.1779 10.4198 19.965 10.3136C19.7521 10.2073 19.5105 10.1514 19.2647 10.1514C19.0189 10.1514 18.7774 10.2073 18.5645 10.3136C18.3516 10.4198 18.1747 10.5727 18.0518 10.7567L17.6961 11.2894C17.5731 11.4734 17.3963 11.6262 17.1834 11.7325C16.9705 11.8387 16.729 11.8946 16.4832 11.8946C16.2374 11.8946 15.9958 11.8387 15.7829 11.7325C15.57 11.6262 15.3932 11.4734 15.2703 11.2894L8.13443 0.60533C8.01151 0.421289 7.83471 0.268463 7.62181 0.162207C7.4089 0.0559483 7.16739 5.72205e-06 6.92155 0H1.40053C1.15468 5.72205e-06 0.913166 0.0559502 0.700258 0.16221C0.487351 0.268469 0.310552 0.421299 0.187631 0.605341C0.0647101 0.789383 -1.56139e-06 0.998152 0 1.21066C1.56145e-06 1.42318 0.0647163 1.63194 0.18764 1.81598L15.2661 24.3947C15.389 24.5788 15.5658 24.7316 15.7787 24.8378C15.9916 24.9441 16.2332 25 16.479 25C16.7248 25 16.9663 24.9441 17.1792 24.8378C17.3921 24.7316 17.5689 24.5788 17.6919 24.3947L23.2339 16.0981C23.3575 15.9144 23.4229 15.7058 23.4236 15.4933C23.4244 15.2807 23.3604 15.0718 23.2381 14.8874Z" fill="#4FB3FF"/>
</svg>
